<?xml version="1.0" standalone="no"?>
<!DOCTYPE svg PUBLIC "-//W3C//DTD SVG 1.1//EN" "http://www.w3.org/Graphics/SVG/1.1/DTD/svg11.dtd" >
<svg xmlns="http://www.w3.org/2000/svg">
<metadata></metadata>
<defs>
<font id="arial_narrowitalic" horiz-adv-x="934" >
<font-face units-per-em="2048" ascent="1638" descent="-410" />
<missing-glyph horiz-adv-x="467" />
<glyph horiz-adv-x="2048" />
<glyph horiz-adv-x="2048" />
<glyph unicode="&#xd;" horiz-adv-x="467" />
<glyph unicode=" "  horiz-adv-x="467" />
<glyph unicode="&#x09;" horiz-adv-x="467" />
<glyph unicode="&#xa0;" horiz-adv-x="467" />
<glyph unicode="!" horiz-adv-x="467" d="M95 0l35 205h168l-36 -205h-167zM188 370l91 796l52 300h180l-56 -325l-174 -771h-93z" />
<glyph unicode="&#x22;" horiz-adv-x="596" d="M219 947l8 279l41 240h169l-42 -240l-86 -279h-90zM490 947l9 279l42 240h168l-42 -240l-88 -279h-89z" />
<glyph unicode="#" d="M15 401v149h163l61 363h-224v149h248l72 429h123l-72 -429h259l71 429h124l-72 -429h143v-149h-167l-61 -363h228v-149h-253l-71 -426h-124l71 426h-258l-71 -426h-123l71 426h-138zM301 550h258l61 363h-258z" />
<glyph unicode="$" d="M86 424l149 11q7 -120 52 -195.5t111 -103.5l94 553q-103 55 -153.5 108.5t-80.5 130t-30 159.5q0 166 110 283t259 117l32 -1l13 78h82l-16 -91q226 -67 253 -361l-141 -9q-12 95 -45.5 145.5t-91.5 75.5l-86 -503q158 -79 223.5 -175.5t65.5 -223.5 q0 -175 -107.5 -311.5t-303.5 -136.5l-23 1l-29 -171h-82l31 183q-116 29 -197 145.5t-89 291.5zM374 1099q0 -80 32 -134t116 -104l82 480q-99 4 -164.5 -63.5t-65.5 -178.5zM477 119l13 -1q98 0 173 83t75 201q0 82 -36 139t-134 109z" />
<glyph unicode="%" horiz-adv-x="1493" d="M163 1015q0 86 36 211.5t104 188.5t161 63q112 0 173 -69t61 -212t-47.5 -267t-114 -173.5t-150.5 -49.5q-107 0 -165 72.5t-58 235.5zM235 -54l993 1545h134l-989 -1545h-138zM289 982q0 -85 26.5 -119.5t70.5 -34.5q43 0 74 29q44 40 76.5 144.5t32.5 217.5 q0 68 -28.5 103t-72.5 35q-39 0 -71 -29q-44 -40 -76 -141t-32 -205zM896 254q0 85 36 210.5t104 189t161 63.5q112 0 173 -69t61 -212t-47.5 -267t-114 -173.5t-150.5 -49.5q-107 0 -165 72t-58 236zM1022 220q0 -84 26.5 -119t69.5 -35t75 29q43 40 76 144t33 214 q0 73 -28.5 108t-71.5 35q-40 0 -72 -29q-44 -41 -76 -141.5t-32 -205.5z" />
<glyph unicode="&#x26;" horiz-adv-x="1120" d="M132 380q0 170 79 283t237 199q-43 115 -52 156q-12 57 -12 118q0 136 84 245.5t218 109.5q110 0 183.5 -79t73.5 -203q0 -106 -65 -202t-234 -200q106 -236 206 -389q61 90 115 209l129 -81q-55 -139 -150 -272q57 -88 139 -200l-112 -109q-84 88 -138 178 q-106 -105 -179 -140t-158 -35q-157 0 -260.5 113.5t-103.5 298.5zM283 402q0 -119 65.5 -195t153.5 -76q123 0 245 151q-152 241 -238 439q-115 -65 -162 -126q-64 -85 -64 -193zM539 1155q0 -95 50 -213q209 129 209 264q0 61 -34 100.5t-80 39.5q-56 0 -100.5 -55 t-44.5 -136z" />
<glyph unicode="'" horiz-adv-x="322" d="M214 947l10 274l43 245h168l-43 -245l-86 -274h-92z" />
<glyph unicode="(" horiz-adv-x="559" d="M142 273q0 251 54 462t163 416q67 126 219 340h116q-104 -136 -209 -365t-151.5 -442t-46.5 -433q0 -328 95 -682h-111q-129 346 -129 704z" />
<glyph unicode=")" horiz-adv-x="559" d="M-90 -431q103 135 208.5 364.5t151.5 442.5t46 430q0 332 -94 685h110q130 -342 130 -704q0 -249 -54 -460t-164 -418q-70 -132 -219 -340h-115z" />
<glyph unicode="*" horiz-adv-x="653" d="M190 1195l37 142q130 -55 190 -96q-17 175 -17 249h119q-2 -103 -19 -248q82 51 194 97l38 -142q-104 -42 -204 -56q51 -55 142 -189l-98 -85q-48 77 -114 214q-62 -145 -106 -215l-96 84q90 139 135 190q-110 25 -201 55z" />
<glyph unicode="+" horiz-adv-x="981" d="M93 639v168h327v399h140v-399h327v-168h-327v-402h-140v402h-327z" />
<glyph unicode="," horiz-adv-x="467" d="M41 -296l14 79q97 33 129 217h-92l35 205h169l-30 -179q-51 -297 -225 -322z" />
<glyph unicode="-" horiz-adv-x="559" d="M77 440l31 181h453l-31 -181h-453z" />
<glyph unicode="." horiz-adv-x="467" d="M97 0l35 205h168l-35 -205h-168z" />
<glyph unicode="/" horiz-adv-x="467" d="M-86 -24l646 1515h129l-646 -1515h-129z" />
<glyph unicode="0" d="M119 481q0 277 89 535.5t215 370.5q95 85 204 85q135 0 229 -122.5t94 -361.5q0 -236 -60 -467q-76 -293 -214 -438q-103 -108 -236 -108q-132 0 -226.5 127.5t-94.5 378.5zM263 435q0 -164 52.5 -240t132.5 -76q83 0 149 85q110 140 161 404t51 422q0 159 -50.5 228 t-131.5 69q-88 0 -156 -84q-96 -120 -152 -390.5t-56 -417.5z" />
<glyph unicode="1" d="M249 918l28 164q143 70 286 199q109 97 156 191h87l-252 -1472h-149l190 1107q-122 -118 -346 -189z" />
<glyph unicode="2" d="M99 0q32 188 116 314q63 95 314 340q153 148 210.5 240.5t57.5 190.5q0 105 -60.5 173.5t-142.5 68.5q-84 0 -147 -71t-90 -230l-145 26q22 202 126.5 311t252.5 109q163 0 258 -113t95 -280q0 -149 -87 -283q-54 -84 -306 -328q-189 -182 -245 -302h538l-29 -166h-716z " />
<glyph unicode="3" d="M92 384l145 22q16 -157 73 -222t146 -65q105 0 187.5 93t82.5 221q0 115 -62 183t-159 68q-12 0 -47 -4l25 151q21 -4 41 -4q120 0 192 72.5t72 189.5q0 104 -58 171t-133 67q-80 0 -144.5 -69.5t-82.5 -200.5l-146 36q37 186 141.5 282.5t239.5 96.5q141 0 236 -105 t95 -273q0 -115 -49.5 -201.5t-149.5 -143.5q70 -51 105 -124.5t35 -168.5q0 -201 -124 -341t-286 -140q-155 0 -259 107t-116 302z" />
<glyph unicode="4" d="M77 374l31 179l673 913h122l-160 -932h169l-27 -160h-170l-64 -374h-148l64 374h-490zM252 534h343l104 612z" />
<glyph unicode="5" d="M117 388l1 31l151 18l-2 -47q0 -73 30.5 -140t76 -99t96.5 -32q63 0 132 53t118 164t49 230q0 127 -61 199t-154 72q-130 0 -231 -152l-129 11l180 750h587l-28 -166h-457l-90 -373q101 90 215 90q133 0 224 -108.5t91 -306.5q0 -273 -146 -453q-125 -154 -311 -154 q-95 0 -170.5 48.5t-123.5 148t-48 216.5z" />
<glyph unicode="6" d="M140 489q0 226 70.5 480.5t201.5 390.5q109 112 252 112q120 0 199 -91t91 -270l-138 -16q-23 225 -163 225q-61 0 -114 -46q-80 -68 -131 -194t-70 -230q63 63 124.5 94.5t121.5 31.5q134 0 225 -111.5t91 -309.5q0 -256 -138 -433q-115 -147 -273 -147 q-145 0 -247 130.5t-102 383.5zM286 412q0 -127 64 -210t142 -83q90 0 169 110q98 134 98 309q0 134 -61 213.5t-144 79.5q-98 0 -183 -115.5t-85 -303.5z" />
<glyph unicode="7" d="M204 1280l29 166h768l-29 -166q-189 -203 -329 -511q-178 -394 -244 -769h-155q26 191 112 445t203.5 470t244.5 365h-600z" />
<glyph unicode="8" d="M125 372q0 107 34.5 202t86.5 149.5t132 82.5q-67 45 -100.5 111.5t-33.5 155.5q0 141 95.5 270t268.5 129q150 0 244.5 -99t94.5 -258q0 -111 -50.5 -195.5t-152.5 -134.5q76 -58 110 -130.5t34 -169.5q0 -226 -123 -368.5t-296 -142.5q-146 0 -245 110.5t-99 287.5z M274 358q0 -108 59.5 -173.5t150.5 -65.5q114 0 184 118.5t70 250.5q0 108 -56 171t-141 63q-109 0 -188 -99.5t-79 -264.5zM390 1065q0 -98 51 -153.5t135 -55.5q97 0 163 73t66 188q0 97 -52 153.5t-134 56.5q-62 0 -114 -32.5t-83.5 -95.5t-31.5 -134z" />
<glyph unicode="9" d="M113 336l139 17q27 -227 161 -227q88 0 161 93q106 134 155 376q-79 -72 -137 -99t-113 -27q-125 0 -218 113.5t-93 313.5q0 221 114 398.5t298 177.5q146 0 246 -132t100 -382q0 -293 -87.5 -542.5t-199.5 -345t-234 -95.5q-120 0 -201 92t-91 269zM311 916 q0 -141 61 -221.5t142 -80.5q112 0 195 140q75 127 75 274q0 88 -31 159t-79 105.5t-98 34.5q-57 0 -117.5 -48t-104 -151.5t-43.5 -211.5z" />
<glyph unicode=":" horiz-adv-x="467" d="M96 0l35 205h168l-35 -205h-168zM243 857l35 205h168l-35 -205h-168z" />
<glyph unicode=";" horiz-adv-x="467" d="M41 -296l14 79q97 33 129 217h-92l35 205h169l-30 -179q-51 -297 -225 -322zM239 857l35 205h167l-35 -205h-167z" />
<glyph unicode="&#x3c;" horiz-adv-x="981" d="M91 641v168l796 410v-179l-631 -316l631 -319v-179z" />
<glyph unicode="=" horiz-adv-x="981" d="M93 417v168h794v-168h-794zM93 862v168h794v-168h-794z" />
<glyph unicode="&#x3e;" horiz-adv-x="981" d="M91 226v179l631 319l-631 316v179l796 -410v-168z" />
<glyph unicode="?" d="M214 1065q35 217 138 321.5t244 104.5q148 0 247 -101.5t99 -258.5q0 -115 -65 -218q-46 -74 -198 -222q-105 -104 -138.5 -164t-47.5 -160h-141q9 90 33 157.5t65 127t153 169.5q118 118 155 188.5t37 134.5q0 85 -57 143.5t-137 58.5q-93 0 -155 -70.5t-84 -240.5z M280 0l35 205h168l-36 -205h-167z" />
<glyph unicode="@" horiz-adv-x="1704" d="M92 472q0 299 115.5 545t290.5 361t406 115q199 0 356 -96t251 -280t94 -409q0 -293 -175 -521q-147 -191 -317 -191q-84 0 -118.5 40.5t-41.5 126.5q-59 -83 -134 -130q-57 -36 -118 -36q-71 0 -139 50.5t-113 157t-45 237.5q0 170 70.5 329.5t167.5 236t188 76.5 q78 0 140 -46t108 -138l27 155h148l-119 -671q-24 -140 -24 -155q0 -29 17.5 -47.5t40.5 -18.5q43 0 124 70t136 203.5t55 282.5q0 178 -77 322.5t-212.5 225t-297.5 80.5q-186 0 -338.5 -101.5t-248.5 -303t-96 -456.5q0 -248 85.5 -419.5t245.5 -260.5t380 -89 q197 0 346 82.5t227 219.5h148q-49 -121 -161.5 -231.5t-248.5 -164.5t-314 -54q-258 0 -439.5 104.5t-285.5 307t-104 491.5zM556 434q0 -139 54.5 -214t124.5 -75q56 0 126 58.5t120 182t50 259.5q0 143 -56 216.5t-136 73.5q-60 0 -121.5 -52t-111.5 -186t-50 -263z" />
<glyph unicode="A" horiz-adv-x="1120" d="M-33 0l681 1466h190l198 -1466h-156l-58 422h-486l-193 -422h-176zM405 573h397l-46 368q-27 218 -34 365q-40 -126 -119 -299z" />
<glyph unicode="B" horiz-adv-x="1120" d="M73 0l251 1466h373q136 0 202 -24q96 -34 148.5 -117.5t52.5 -208.5q0 -123 -56 -213.5t-166 -137.5q95 -38 145 -115t50 -186q0 -126 -60.5 -238t-153.5 -169t-204 -57h-582zM262 166h274q108 0 144 8q65 14 114.5 47t81.5 98.5t32 142.5q0 110 -56 160.5t-197 50.5 h-306zM378 840h244q176 0 244 61q83 78 83 206q0 65 -26 110.5t-66 63.5t-145 18h-256z" />
<glyph unicode="C" horiz-adv-x="1212" d="M152 604q0 363 165 614q179 273 463 273q182 0 304.5 -121t141.5 -340l-150 -17q-47 316 -290 316q-212 0 -343 -216.5t-131 -512.5q0 -230 93 -346.5t235 -116.5q122 0 214 88q113 108 158 291l159 -27q-76 -258 -222.5 -386t-320.5 -128q-213 0 -344.5 159t-131.5 470z " />
<glyph unicode="D" horiz-adv-x="1212" d="M74 0l251 1466h363q122 0 186 -19q94 -27 167.5 -101t113.5 -197t40 -283q0 -213 -65.5 -386.5t-162 -286.5t-225.5 -158q-98 -35 -235 -35h-433zM263 166h191q134 0 227.5 28.5t167.5 111t128.5 231.5t54.5 339q0 167 -47.5 265.5t-129.5 132.5q-59 25 -185 25h-213z " />
<glyph unicode="E" horiz-adv-x="1120" d="M76 0l251 1466h868l-28 -167h-708l-78 -456h688l-28 -167h-688l-88 -510h757l-29 -166h-917z" />
<glyph unicode="F" horiz-adv-x="1026" d="M76 0l251 1466h781l-28 -167h-621l-80 -467h632l-28 -167h-632l-114 -665h-161z" />
<glyph unicode="G" horiz-adv-x="1307" d="M163 587q0 267 97 483.5t242 318.5t321 102q209 0 339 -145q92 -103 125 -309l-158 -21q-26 156 -107.5 234t-204.5 78q-126 0 -237.5 -83t-182.5 -256t-71 -405q0 -228 92 -337.5t245 -109.5q156 0 337 126l54 315h-366l28 166h527l-102 -597q-104 -80 -231.5 -126 t-245.5 -46q-255 0 -378 173.5t-123 438.5z" />
<glyph unicode="H" horiz-adv-x="1212" d="M70 0l251 1466h161l-104 -609h623l104 609h161l-251 -1466h-161l118 691h-623l-118 -691h-161z" />
<glyph unicode="I" horiz-adv-x="467" d="M96 0l251 1466h161l-251 -1466h-161z" />
<glyph unicode="J" horiz-adv-x="840" d="M55 295q0 67 13 132l149 13q-14 -85 -14 -127q0 -83 43.5 -129.5t113.5 -46.5q49 0 88.5 26t64.5 79.5t47 184.5l178 1039h161l-183 -1071q-39 -229 -130 -324.5t-230 -95.5q-141 0 -221 80.5t-80 239.5z" />
<glyph unicode="K" horiz-adv-x="1120" d="M75 0l251 1466h161l-121 -706l653 706h226l-558 -597l409 -869h-179l-348 743l-252 -267l-81 -476h-161z" />
<glyph unicode="L" d="M67 0l251 1466h161l-223 -1300h624l-28 -166h-785z" />
<glyph unicode="M" horiz-adv-x="1399" d="M74 0l251 1466h197l122 -950q24 -189 31 -359q51 149 167 401l422 908h201l-251 -1466h-158l125 713q44 248 125 554q-52 -143 -129 -308l-447 -959h-155l-121 940q-16 124 -24 301q-19 -187 -39 -306l-161 -935h-156z" />
<glyph unicode="N" horiz-adv-x="1212" d="M81 0l251 1466h157l202 -550q90 -243 141 -407q36 -113 78 -287q23 189 56 382l148 862h156l-251 -1466h-159l-299 847q-79 226 -124 395q-11 -143 -47 -351l-153 -891h-156z" />
<glyph unicode="O" horiz-adv-x="1307" d="M154 614q0 403 201 654q179 223 436 223q216 0 361.5 -174t145.5 -484q0 -249 -95 -451.5t-240 -304.5t-305 -102q-139 0 -250.5 74t-182.5 224t-71 341zM312 604q0 -213 106 -340t251 -127q110 0 216.5 81t179.5 254.5t73 378.5q0 222 -103.5 349.5t-250.5 127.5 q-170 0 -306 -167q-166 -205 -166 -557z" />
<glyph unicode="P" horiz-adv-x="1120" d="M73 0l251 1466h503q130 0 193.5 -35.5t108 -122.5t44.5 -202q0 -149 -71.5 -281.5t-187 -181t-278.5 -48.5h-300l-102 -595h-161zM364 761h265q144 0 216 35.5t120.5 119.5t48.5 184q0 77 -25 123t-68 65t-155 19h-308z" />
<glyph unicode="Q" horiz-adv-x="1307" d="M156 638q0 248 93.5 451.5t235.5 302.5t308 99q217 0 362 -174t145 -484q0 -225 -78 -413t-206 -302q58 -86 164 -170l-71 -116q-112 89 -196 211q-112 -69 -251 -69q-215 0 -360.5 175.5t-145.5 488.5zM314 620q0 -228 106 -355t258 -127q67 0 134 33q-76 84 -153 133 l58 122q101 -52 200 -182q95 88 159 252.5t64 345.5q0 230 -103 358t-250 128q-111 0 -221.5 -83t-181 -249t-70.5 -376z" />
<glyph unicode="R" horiz-adv-x="1212" d="M79 0l251 1466h505q164 0 236.5 -35t107.5 -103q48 -92 48 -219q0 -191 -101.5 -303.5t-304.5 -146.5q67 -60 104 -125q72 -127 116 -258l92 -276h-180l-86 273q-49 157 -110 263q-39 69 -81.5 92t-137.5 23h-186l-112 -651h-161zM379 810h221q184 0 250 13.5t115.5 53 t78.5 100.5t29 135q0 67 -24.5 112.5t-61.5 63t-131 17.5h-393z" />
<glyph unicode="S" horiz-adv-x="1120" d="M119 474l157 18l-1 -49q0 -98 40 -174q30 -58 101.5 -94.5t170.5 -36.5q137 0 217 72.5t80 180.5q0 76 -45 132q-46 55 -219 146q-134 71 -182 107q-87 65 -128.5 143.5t-41.5 179.5q0 176 112.5 284t308.5 108q135 0 231 -51t152.5 -149t56.5 -210l-1 -31l-156 -15l1 33 q0 71 -35.5 132t-101.5 94.5t-152 33.5q-123 0 -191.5 -60t-68.5 -158q0 -89 52 -137t256 -158q149 -81 202.5 -131.5t83 -121t29.5 -158.5q0 -184 -129 -306.5t-338 -122.5q-226 0 -343 120.5t-118 378.5z" />
<glyph unicode="T" horiz-adv-x="1026" d="M209 1299l29 167h946l-28 -167h-392l-222 -1299h-161l223 1299h-395z" />
<glyph unicode="U" horiz-adv-x="1212" d="M162 400q0 78 34 266l137 800h161l-155 -901q-19 -112 -19 -167q0 -113 75 -187t193 -74q156 0 254 128q75 98 126 394l138 807h160l-147 -860q-42 -249 -114 -377t-176.5 -191.5t-234.5 -63.5q-200 0 -316 115.5t-116 310.5z" />
<glyph unicode="V" horiz-adv-x="1120" d="M208 1466h155l139 -874q39 -238 50 -384q77 191 125 298l428 960h166l-660 -1466h-172z" />
<glyph unicode="W" horiz-adv-x="1585" d="M210 1466h163l28 -725q10 -238 10 -375l-1 -96l144 352l366 844h166l40 -857q7 -157 9 -354q15 50 50 147q61 166 91 238l343 826h163l-611 -1466h-172l-41 888q-5 116 -9 280q-52 -144 -83 -216l-416 -952h-166z" />
<glyph unicode="X" horiz-adv-x="1120" d="M-53 0l574 741l-340 725h177l155 -332q80 -171 117 -270q62 101 188 263l264 339h209l-580 -757l329 -709h-175l-195 429q-27 59 -66 162q-44 -72 -108 -155l-336 -436h-213z" />
<glyph unicode="Y" horiz-adv-x="1120" d="M197 1466h172l178 -428q56 -136 113 -300q60 136 165 297l282 431h192l-574 -914l-94 -552h-161l97 567z" />
<glyph unicode="Z" horiz-adv-x="1026" d="M41 0l15 147l728 1063q38 56 72 101q-76 -12 -120 -12h-525l29 167h829l-14 -153l-645 -935l-151 -217q39 6 81 6h621l-29 -167h-891z" />
<glyph unicode="[" horiz-adv-x="467" d="M11 -401l316 1867h330l-23 -139h-181l-272 -1589h181l-23 -139h-328z" />
<glyph unicode="\" horiz-adv-x="467" d="M143 1491h115l201 -1515h-115z" />
<glyph unicode="]" horiz-adv-x="467" d="M-98 -401l24 139h181l272 1589h-180l24 139h330l-323 -1867h-328z" />
<glyph unicode="^" horiz-adv-x="788" d="M45 690l290 801h119l290 -801h-148l-203 597l-197 -597h-151z" />
<glyph unicode="_" d="M-12 -154h955v-102h-955v102z" />
<glyph unicode="`" horiz-adv-x="559" d="M245 1466h180l96 -275h-116z" />
<glyph unicode="a" d="M74 285q0 102 44 178t123.5 116.5t227.5 47.5q125 7 171.5 15t79.5 24q18 76 18 124q0 67 -48.5 107.5t-140.5 40.5q-185 0 -240 -194l-150 16q95 326 399 326q150 0 238 -78.5t88 -197.5q0 -84 -20 -197l-48 -264q-23 -126 -23 -204q0 -55 17 -145h-149q-13 50 -18 132 q-82 -86 -154 -121t-146 -35q-116 0 -192.5 83t-76.5 226zM222 291q0 -81 45 -128t120 -47q71 0 137 44t107.5 127t66.5 251q-55 -26 -186 -40q-134 -14 -184 -36t-78 -67t-28 -104z" />
<glyph unicode="b" d="M56 0l251 1466h149l-90 -524q72 81 129.5 112.5t116.5 31.5q121 0 204 -108.5t83 -324.5q0 -199 -67 -360.5t-165 -239t-193 -77.5q-179 0 -253 225l-35 -201h-130zM275 398q0 -135 54.5 -204.5t134.5 -69.5q64 0 126 52.5t112.5 194t50.5 277.5q0 145 -53.5 218.5 t-134.5 73.5q-72 0 -140 -71t-115 -234q-34 -120 -34 -199z" />
<glyph unicode="c" horiz-adv-x="840" d="M94 401q0 203 66.5 369t168 241t225.5 75q134 0 219 -94t84 -258l-146 -12q0 104 -48.5 159.5t-119.5 55.5q-79 0 -142.5 -52.5t-110 -194t-46.5 -313.5q0 -128 50.5 -194.5t120.5 -66.5q72 0 138 67t103 204l149 -19q-56 -199 -160 -295.5t-232 -96.5q-138 0 -228.5 109 t-90.5 316z" />
<glyph unicode="d" d="M88 412q0 195 67 357.5t165 239.5t195 77q161 0 243 -191l98 571h148l-251 -1466h-137l26 154q-126 -178 -266 -178q-120 0 -204 109t-84 327zM235 402q0 -132 61 -216q47 -65 124 -65q100 0 183 128q109 171 109 420q0 128 -56 198t-133 70q-75 0 -141 -67t-106 -201 t-40 -224z" />
<glyph unicode="e" d="M87 426q0 187 70.5 349t172.5 236.5t221 74.5q151 0 246.5 -115t95.5 -325q0 -78 -11 -160h-642q-3 -32 -3 -57q0 -150 57 -227.5t137 -77.5q76 0 149.5 61t114.5 176l145 -18q-36 -155 -167 -270q-109 -97 -243 -97q-95 0 -173 51.5t-124 154t-46 244.5zM264 624h489v37 q0 142 -56 213t-143 71q-94 0 -172.5 -80t-117.5 -241z" />
<glyph unicode="f" horiz-adv-x="467" d="M77 0l158 922h-133l24 140h133l26 151q27 157 66 207q56 71 172 71q55 0 163 -29l-27 -158q-76 24 -126 24q-44 0 -66.5 -27t-39.5 -125l-20 -114h166l-24 -140h-166l-157 -922h-149z" />
<glyph unicode="g" d="M44 -150q0 24 4 54l150 -17v-24q0 -69 39 -104t122 -35q129 0 189 79q42 58 76 254l15 86q-116 -143 -246 -143q-129 0 -219.5 116.5t-90.5 337.5q0 174 69.5 327.5t168 229t198.5 75.5q171 0 264 -198l30 174h135l-175 -1025q-40 -232 -121 -334q-102 -128 -277 -128 q-166 0 -248.5 73.5t-82.5 201.5zM233 470q0 -119 25.5 -186t70 -101.5t94.5 -34.5q67 0 136 55.5t119 185t50 265.5q0 134 -60.5 210t-145.5 76q-69 0 -136.5 -61.5t-110 -188t-42.5 -220.5z" />
<glyph unicode="h" d="M56 0l251 1466h149l-97 -563q87 103 158.5 143t143.5 40q103 0 165 -67t62 -184q0 -58 -26 -208l-107 -627h-149l111 643q24 139 24 176q0 54 -31.5 86t-83.5 32q-77 0 -148 -47t-115 -136.5t-80 -297.5l-79 -456h-148z" />
<glyph unicode="i" horiz-adv-x="373" d="M50 0l182 1062h148l-182 -1062h-148zM266 1261l35 205h148l-35 -205h-148z" />
<glyph unicode="j" horiz-adv-x="373" d="M-204 -399l26 154q51 -17 91 -17q48 0 76 40t58 212l183 1072h149l-190 -1105q-36 -210 -83 -285q-61 -97 -169 -97q-58 0 -141 26zM266 1261l35 205h147l-36 -205h-146z" />
<glyph unicode="k" horiz-adv-x="840" d="M57 0l251 1466h149l-156 -909l432 505h197l-372 -396l224 -666h-162l-173 545l-181 -190l-61 -355h-148z" />
<glyph unicode="l" horiz-adv-x="373" d="M44 0l251 1466h149l-251 -1466h-149z" />
<glyph unicode="m" horiz-adv-x="1399" d="M54 0l182 1062h148l-30 -175q86 118 151 158.5t138 40.5q80 0 135 -51t73 -148q66 100 140 149.5t155 49.5q103 0 160.5 -61t57.5 -177q0 -51 -20 -164l-117 -684h-148l120 702q15 86 15 124q0 54 -28 82.5t-75 28.5q-62 0 -130 -45.5t-108.5 -125t-70.5 -251.5l-88 -515 h-149l123 717q13 73 13 105q0 53 -27.5 84t-68.5 31q-99 0 -187.5 -100.5t-128.5 -334.5l-87 -502h-148z" />
<glyph unicode="n" d="M56 0l182 1062h134l-31 -185q94 118 171 163.5t149 45.5q101 0 163.5 -68t62.5 -193q0 -56 -22 -182l-110 -643h-149l116 673q17 99 17 146q0 55 -31.5 86.5t-85.5 31.5q-112 0 -201.5 -99t-131.5 -344l-85 -494h-148z" />
<glyph unicode="o" d="M82 403q0 287 129 485t346 198q152 0 251 -116.5t99 -331.5q0 -197 -67.5 -352t-175 -232.5t-225.5 -77.5q-155 0 -256 114.5t-101 312.5zM231 421q0 -151 60 -228t150 -77q71 0 142 57.5t124 190.5t53 273q0 152 -60 230.5t-148 78.5q-77 0 -149.5 -57t-122 -188.5 t-49.5 -279.5z" />
<glyph unicode="p" d="M-17 -407l252 1469h137l-26 -148q79 100 139 136t126 36q121 0 204.5 -109t83.5 -319q0 -198 -67.5 -361t-178.5 -252q-86 -69 -180 -69q-157 0 -243 194l-99 -577h-148zM275 399q0 -134 54.5 -204.5t136.5 -70.5q65 0 114 43q70 62 121 204.5t51 287.5 q0 136 -54.5 208.5t-132.5 72.5q-62 0 -126 -55.5t-114 -195.5t-50 -290z" />
<glyph unicode="q" d="M87 410q0 200 66 361t164 238t200 77q78 0 144 -54t106 -165l33 195h129l-252 -1469h-148l90 527q-127 -144 -239 -144q-122 0 -207.5 110t-85.5 324zM234 432q0 -159 54 -233.5t132 -74.5q60 0 115 49q77 67 127 204.5t50 282.5q0 131 -56 204t-132 73q-68 0 -119 -43 q-68 -58 -119.5 -195t-51.5 -267z" />
<glyph unicode="r" horiz-adv-x="559" d="M56 0l182 1062h131l-37 -217q131 241 263 241q45 0 110 -39l-61 -168q-39 34 -82 34q-82 0 -163.5 -107.5t-127.5 -379.5l-74 -426h-141z" />
<glyph unicode="s" horiz-adv-x="840" d="M64 343v20l149 11q-1 -130 57 -194t158 -64q91 0 144 45.5t53 116.5q0 51 -33 92q-34 41 -147 100q-130 68 -171.5 104.5t-64.5 89t-23 117.5q0 133 86 219t226 86q155 0 245 -88.5t94 -247.5l-146 -12q-3 100 -57.5 154t-146.5 54q-72 0 -117 -40.5t-45 -93.5 q0 -46 27 -79q27 -34 137 -91q169 -89 215 -142q70 -83 70 -202q0 -132 -93.5 -227t-259.5 -95q-167 0 -262 96t-95 271z" />
<glyph unicode="t" horiz-adv-x="467" d="M94 144q0 35 22 161l105 617h-117l24 140h117l45 261l170 125l-66 -386h145l-24 -140h-145l-101 -587q-19 -113 -19 -133q0 -35 16 -51t49 -16q49 0 88 12l-26 -148q-53 -17 -103 -17q-83 0 -131.5 44t-48.5 118z" />
<glyph unicode="u" d="M105 219q0 68 28 230l105 613h148l-116 -679q-15 -85 -15 -131q0 -63 31 -95.5t87 -32.5q79 0 157.5 63.5t115 159t63.5 256.5l79 459h148l-182 -1062h-137l33 192q-157 -216 -321 -216q-95 0 -159.5 68t-64.5 175z" />
<glyph unicode="v" horiz-adv-x="840" d="M132 1062h144l75 -585q12 -100 30 -313q43 114 110 259l290 639h157l-498 -1062h-165z" />
<glyph unicode="w" horiz-adv-x="1212" d="M130 1062h142l40 -477q14 -173 20 -389q40 159 97 312l207 554h162l29 -531q6 -113 8 -323q41 135 133 372l187 482h149l-426 -1062h-154l-32 623q-4 65 -5 226q-34 -108 -80 -231l-230 -618h-156z" />
<glyph unicode="x" horiz-adv-x="840" d="M-3 0l379 539l-217 523h164l73 -189q42 -107 74 -203l251 392h182l-366 -537l219 -525h-164l-86 216q-29 73 -64 171l-259 -387h-186z" />
<glyph unicode="y" horiz-adv-x="840" d="M0 -410l9 170q46 -16 89 -16q45 0 72 24q38 34 80 125l47 104l-145 1065h146l66 -537q20 -161 34 -318l389 855h155l-555 -1203q-83 -182 -146.5 -236t-139.5 -54q-52 0 -101 21z" />
<glyph unicode="z" horiz-adv-x="840" d="M33 0l24 140l468 643q50 68 112 141q-106 -13 -153 -13h-323l26 151h673l-19 -114l-473 -647q-40 -55 -119 -151q123 9 169 9h343l-27 -159h-701z" />
<glyph unicode="{" horiz-adv-x="561" d="M113 449l29 163q56 1 101.5 35t74.5 100.5t62 251.5q33 182 50 242q28 97 78 161q37 48 88.5 68.5t129.5 20.5h46l-28 -157h-26q-67 0 -96.5 -18.5t-47.5 -60.5t-46 -200q-37 -213 -68 -298t-75 -135.5t-121 -91.5q116 -65 116 -228q0 -91 -50 -369q-13 -73 -13 -117 q0 -49 24.5 -69.5t93.5 -20.5h25l-27 -157h-46q-84 0 -123 20.5t-63 66.5t-24 113q0 75 37 292q29 164 29 222q0 78 -39 127q-30 37 -91 39z" />
<glyph unicode="|" horiz-adv-x="436" d="M155 -431v1922h129v-1922h-129z" />
<glyph unicode="}" horiz-adv-x="561" d="M-140 -431l28 157h25q67 0 97 18.5t48 60.5t45 201q38 213 69.5 299t79.5 139.5t116 85.5q-63 41 -89.5 93t-26.5 136q0 89 36 296q26 146 26 189q0 49 -24.5 69.5t-92.5 20.5h-26l28 157h46q84 0 123 -20t62.5 -66t23.5 -114q0 -77 -37 -292q-28 -162 -28 -221 q0 -79 39 -128q29 -36 91 -38l-29 -163q-56 -2 -102 -36t-74.5 -100.5t-61.5 -251.5q-33 -180 -51 -243q-28 -97 -78 -161q-37 -47 -88 -67.5t-129 -20.5h-46z" />
<glyph unicode="~" horiz-adv-x="981" d="M72 557v205q87 120 228 120q46 0 100.5 -17t156.5 -70q91 -47 142 -47q49 0 95 28q65 41 117 109v-212q-102 -114 -227 -114q-48 0 -92 13t-133 62q-108 59 -173 59q-50 0 -97 -27t-117 -109z" />
<glyph unicode="&#xa1;" horiz-adv-x="559" d="M51 -404l56 325l173 771h93l-91 -796l-51 -300h-180zM264 857l35 205h168l-35 -205h-168z" />
<glyph unicode="&#xa2;" d="M127 401q0 203 66.5 369t168 241t225.5 75q24 0 49 -4l138 404l87 -45l-132 -389q163 -87 161 -318l-146 -12q0 67 -16.5 107t-50.5 71l-264 -780q19 -4 35 -4q72 0 138 67t103 204l149 -19q-56 -199 -160 -295.5t-233 -96.5q-39 0 -77 10l-133 -393l-89 47l132 387 q-151 107 -151 374zM277 387q0 -139 53 -207l257 757h-13q-78 0 -140.5 -52.5t-102.5 -173.5q-54 -162 -54 -324z" />
<glyph unicode="&#xa3;" d="M53 152q84 66 142 142.5t85 157.5t27 152q0 16 -3 47h-182l26 151h142q-15 136 -15 227q0 203 117.5 332.5t280.5 129.5q134 0 232 -96t116 -293l-136 -17q-13 131 -71.5 196t-143.5 65q-97 0 -170 -91.5t-73 -258.5q0 -69 16 -194h238l-26 -151h-206l1 -44 q0 -115 -43 -214.5t-131 -180.5q44 7 64 7q66 0 103.5 -7.5t100.5 -33.5q72 -29 118 -29q92 0 180 63l45 -163q-125 -74 -219 -74q-62 0 -152 45q-107 54 -190 54q-68 0 -124 -20.5t-132 -78.5z" />
<glyph unicode="&#xa4;" d="M58 354l114 136q-58 111 -58 236t58 235l-114 136l94 119l114 -139q43 36 91.5 54t103.5 18t103.5 -18t90.5 -54l114 139l95 -119l-114 -136q58 -110 58 -235t-58 -236l114 -136l-95 -119l-114 140q-42 -36 -90.5 -54.5t-103.5 -18.5t-103.5 18.5t-91.5 54.5l-114 -140z M247 726q0 -112 64 -186t149 -74t149 74t64 186q0 111 -64 185t-149 74t-149 -74t-64 -185z" />
<glyph unicode="&#xa5;" d="M61 327l24 138h335l26 147h-336l23 138h282l-224 716h149l96 -315q91 -304 108 -379q33 93 106 214l286 480h184l-444 -716h274l-23 -138h-333l-25 -147h333l-24 -138h-333l-56 -327h-148l56 327h-336z" />
<glyph unicode="&#xa6;" horiz-adv-x="436" d="M155 360h129v-791h-129v791zM155 701v790h129v-790h-129z" />
<glyph unicode="&#xa7;" d="M51 -90l136 42q21 -123 84 -185.5t143 -62.5q77 0 131 55.5t54 134.5q0 57 -33.5 110t-248.5 262q-107 105 -149 177t-42 166q0 106 51.5 188.5t181.5 162.5q-64 96 -64 201q0 149 88 239.5t233 90.5q137 0 215 -77.5t101 -261.5l-148 -21q-1 106 -50.5 160.5 t-128.5 54.5q-72 0 -121 -51t-49 -129q0 -55 34.5 -117.5t148.5 -175.5q189 -186 229.5 -256t40.5 -153q0 -97 -57.5 -186.5t-170.5 -155.5q82 -111 82 -228q0 -138 -93 -231.5t-235 -93.5q-138 0 -236 89t-127 252zM260 628q0 -46 24.5 -92.5t123.5 -142.5l178 -176 q83 47 123.5 107t40.5 117q0 48 -20 83t-117 133q-138 140 -194 216q-159 -110 -159 -245z" />
<glyph unicode="&#xa8;" horiz-adv-x="559" d="M195 1227l35 205h155l-35 -205h-155zM497 1227l36 205h154l-35 -205h-155z" />
<glyph unicode="&#xa9;" horiz-adv-x="1237" d="M2 736q0 208 92.5 392.5t228 273.5t298.5 89q162 0 298 -89t228.5 -273.5t92.5 -392.5q0 -207 -92.5 -391.5t-228.5 -273.5t-298 -89q-163 0 -298.5 89t-228 273.5t-92.5 391.5zM106 736q0 -173 77 -327t190 -228.5t248 -74.5t248 74.5t190 228.5t77 327q0 174 -77 328 t-190 228.5t-248 74.5t-248 -74.5t-190 -228.5t-77 -328zM297 733q0 208 91.5 317.5t237.5 109.5q106 0 180 -61.5t102 -174.5l-98 -29q-25 76 -73.5 114.5t-111.5 38.5q-92 0 -154 -81t-62 -238q0 -153 59 -230.5t146 -77.5q74 0 130.5 50.5t74.5 142.5l101 -36 q-25 -130 -106.5 -202t-191.5 -72q-140 0 -232.5 111.5t-92.5 317.5z" />
<glyph unicode="&#xaa;" horiz-adv-x="621" d="M137 940q0 110 63 169t217 70q86 6 143 22q11 45 11 66q0 45 -31 74t-81 29q-107 0 -151 -120l-115 23q80 218 268 218q106 0 166.5 -55.5t60.5 -143.5q0 -78 -45 -276q-24 -106 -24 -162q0 -58 16 -97h-113q-5 22 -10 66q-33 -36 -87 -61.5t-103 -25.5 q-82 0 -133.5 56.5t-51.5 147.5zM254 950q0 -41 26.5 -67.5t62.5 -26.5q66 0 119 55t75 176q-46 -16 -111 -24q-105 -11 -138 -37q-34 -27 -34 -76z" />
<glyph unicode="&#xab;" d="M132 549l329 431h117l-291 -453l130 -455h-112zM457 551l318 429h127l-291 -453l128 -455h-120z" />
<glyph unicode="&#xac;" horiz-adv-x="981" d="M93 862v168h794v-606h-140v438h-654z" />
<glyph unicode="&#xad;" horiz-adv-x="559" d="M77 440l31 181h453l-31 -181h-453z" />
<glyph unicode="&#xae;" horiz-adv-x="1237" d="M2 736q0 208 92.5 392.5t228 273.5t298.5 89q162 0 298 -89t228.5 -273.5t92.5 -392.5q0 -207 -92.5 -391.5t-228.5 -273.5t-298 -89q-163 0 -298.5 89t-228 273.5t-92.5 391.5zM106 736q0 -173 77 -327t190 -228.5t248 -74.5t248 74.5t190 228.5t77 327q0 174 -77 328 t-190 228.5t-248 74.5t-248 -74.5t-190 -228.5t-77 -328zM349 319v812h230q118 0 168 -22t83 -76.5t33 -123.5q0 -92 -54 -156t-136 -71q37 -19 59 -46q41 -52 96 -158l80 -159h-130l-60 128q-68 147 -110 187q-30 30 -87 30h-64v-345h-108zM457 776h131q88 0 124.5 31.5 t36.5 91.5q0 40 -18 69t-47.5 41t-104.5 12h-122v-245z" />
<glyph unicode="&#xaf;" horiz-adv-x="1024" d="M181 1619v103h1048v-103h-1048z" />
<glyph unicode="&#xb0;" horiz-adv-x="819" d="M273 1214q0 115 81.5 196t195.5 81q116 0 197 -81t81 -196t-81.5 -196.5t-196.5 -81.5q-114 0 -195.5 81t-81.5 197zM382 1214q0 -70 49.5 -119.5t119.5 -49.5q69 0 118.5 49.5t49.5 119.5t-49.5 119.5t-118.5 49.5q-70 0 -119.5 -49.5t-49.5 -119.5z" />
<glyph unicode="&#xb1;" horiz-adv-x="1124" d="M78 0v168h968v-168h-968zM78 663v167h399v399h170v-399h399v-167h-399v-403h-170v403h-399z" />
<glyph unicode="&#xb2;" horiz-adv-x="559" d="M125 733q27 109 91.5 195t202.5 181q81 56 99 79q32 39 32 83q0 40 -27.5 66t-74.5 26q-57 0 -89.5 -26.5t-49.5 -87.5l-125 15q50 220 263 220q107 0 167 -57.5t60 -153.5q0 -81 -50 -148q-36 -49 -159 -139q-113 -82 -145 -132h311l-21 -121h-485z" />
<glyph unicode="&#xb3;" horiz-adv-x="559" d="M138 930l117 16q37 -111 134 -111q57 0 90.5 34.5t33.5 89.5q0 50 -28 76.5t-86 26.5h-34l19 107l27 -1q54 0 94.5 29t40.5 84q0 42 -27.5 68.5t-73.5 26.5q-90 0 -123 -102l-121 19q22 89 85.5 140t157.5 51q107 0 167 -54.5t60 -142.5q0 -136 -138 -176 q60 -29 84.5 -69.5t24.5 -99.5q0 -94 -70 -160.5t-179 -66.5q-96 0 -165 58.5t-90 156.5z" />
<glyph unicode="&#xb4;" horiz-adv-x="559" d="M283 1191l154 275h187l-218 -275h-123z" />
<glyph unicode="&#xb5;" horiz-adv-x="1180" d="M12 -410l311 1472h179l-106 -499q-39 -182 -39 -255q0 -80 53 -130.5t145 -50.5q123 0 209 89q64 68 108 274l120 572h179l-226 -1062h-161l18 84q-136 -109 -266 -109q-74 0 -129.5 30t-108.5 95l-108 -510h-178z" />
<glyph unicode="&#xb6;" horiz-adv-x="901" d="M5 1044q0 133 48 230t132.5 144.5t207.5 47.5h518v-173h-117v-1700h-140v1700h-182v-1700h-135v1045q-148 9 -240 117t-92 289z" />
<glyph unicode="&#xb7;" horiz-adv-x="559" d="M255 630l35 205h168l-35 -205h-168z" />
<glyph unicode="&#xb8;" horiz-adv-x="559" d="M63 -413l18 112q50 -3 119 -3q78 0 109 20t31 52q0 35 -32.5 58.5t-100.5 24.5l33 161h115l-20 -90q69 -12 108.5 -58.5t39.5 -111.5q0 -79 -67 -128t-213 -49q-80 0 -140 12z" />
<glyph unicode="&#xb9;" horiz-adv-x="559" d="M228 1163l22 127q66 24 150 86q62 46 103 108h91l-128 -751h-123l91 532q-84 -72 -206 -102z" />
<glyph unicode="&#xba;" horiz-adv-x="612" d="M117 1068q0 148 85.5 285.5t230.5 137.5q111 0 184.5 -85t73.5 -228q0 -156 -83 -298t-226 -142q-128 0 -196.5 85t-68.5 245zM238 1073q0 -97 30 -143q39 -61 102 -61q44 0 89.5 35t78 113t32.5 163q0 82 -40 131t-97 49q-43 0 -86 -34t-76 -109t-33 -144z" />
<glyph unicode="&#xbb;" d="M69 72l301 449l-121 459h118l157 -483l-321 -425h-134zM397 72l293 441l-122 467h112l169 -485l-334 -423h-118z" />
<glyph unicode="&#xbc;" horiz-adv-x="1401" d="M140 -61l1145 1552h143l-1155 -1552h-133zM229 1163l22 127q66 24 150 86q62 46 103 108h91l-128 -751h-123l91 532q-84 -72 -206 -102zM825 118l21 120l419 478h96l-81 -484h82l-21 -114h-82l-26 -153h-117l26 153h-317zM981 232h182l52 265z" />
<glyph unicode="&#xbd;" horiz-adv-x="1401" d="M100 -61l1145 1552h143l-1155 -1552h-133zM228 1163l22 127q66 24 150 86q62 46 103 108h91l-128 -751h-123l91 532q-84 -72 -206 -102zM835 -35q27 109 91.5 195t202.5 181q81 56 99 79q32 39 32 83q0 40 -27.5 66t-74.5 26q-57 0 -89.5 -26.5t-49.5 -87.5l-125 15 q50 220 263 220q107 0 167 -57.5t60 -153.5q0 -81 -50 -148q-36 -49 -159 -139q-113 -82 -145 -132h311l-21 -121h-485z" />
<glyph unicode="&#xbe;" horiz-adv-x="1401" d="M138 930l117 16q37 -111 134 -111q57 0 90.5 34.5t33.5 89.5q0 50 -28 76.5t-86 26.5h-34l19 107l27 -1q54 0 94.5 29t40.5 84q0 42 -27.5 68.5t-73.5 26.5q-90 0 -123 -102l-121 19q22 89 85.5 140t157.5 51q107 0 167 -54.5t60 -142.5q0 -136 -138 -176 q60 -29 84.5 -69.5t24.5 -99.5q0 -94 -70 -160.5t-179 -66.5q-96 0 -165 58.5t-90 156.5zM164 -61l1145 1552h143l-1155 -1552h-133zM824 118l21 120l419 478h96l-81 -484h82l-21 -114h-82l-26 -153h-117l26 153h-317zM980 232h182l52 265z" />
<glyph unicode="&#xbf;" horiz-adv-x="1026" d="M95 -70q0 115 64 218q47 74 199 223q105 103 138.5 163.5t47.5 160.5h140q-8 -94 -35.5 -167.5t-84.5 -148.5q-27 -37 -130 -139q-119 -117 -155.5 -187.5t-36.5 -135.5q0 -85 57 -143.5t137 -58.5q93 0 155.5 71.5t83.5 240.5l148 -30q-35 -217 -138 -321.5t-244 -104.5 q-148 0 -247 101.5t-99 257.5zM554 857l36 205h167l-35 -205h-168z" />
<glyph unicode="&#xc0;" horiz-adv-x="1120" d="M-33 0l681 1466h190l198 -1466h-156l-58 422h-486l-193 -422h-176zM405 573h397l-46 368q-27 218 -34 365q-40 -126 -119 -299zM586 1837h180l96 -275h-116z" />
<glyph unicode="&#xc1;" horiz-adv-x="1120" d="M-33 0l681 1466h190l198 -1466h-156l-58 422h-486l-193 -422h-176zM405 573h397l-46 368q-27 218 -34 365q-40 -126 -119 -299zM625 1562l154 275h187l-218 -275h-123z" />
<glyph unicode="&#xc2;" horiz-adv-x="1120" d="M-33 0l681 1466h190l198 -1466h-156l-58 422h-486l-193 -422h-176zM405 573h397l-46 368q-27 218 -34 365q-40 -126 -119 -299zM509 1562l217 275h164l102 -275h-130l-65 178l-136 -178h-152z" />
<glyph unicode="&#xc3;" horiz-adv-x="1120" d="M-33 0l681 1466h190l198 -1466h-156l-58 422h-486l-193 -422h-176zM405 573h397l-46 368q-27 218 -34 365q-40 -126 -119 -299zM499 1594q27 132 66.5 178t99.5 46q27 0 52.5 -8t86.5 -40q68 -37 91 -37q43 0 59 79h99q-9 -105 -55.5 -162t-105.5 -57q-33 0 -83 26 q-113 60 -140 60q-54 0 -67 -85h-103z" />
<glyph unicode="&#xc4;" horiz-adv-x="1120" d="M-33 0l681 1466h190l198 -1466h-156l-58 422h-486l-193 -422h-176zM405 573h397l-46 368q-27 218 -34 365q-40 -126 -119 -299zM536 1598l35 205h155l-35 -205h-155zM838 1598l36 205h154l-35 -205h-155z" />
<glyph unicode="&#xc5;" horiz-adv-x="1120" d="M-33 0l681 1466h190l198 -1466h-156l-58 422h-486l-193 -422h-176zM405 573h397l-46 368q-27 218 -34 365q-40 -126 -119 -299zM610 1691q0 78 45 130t104 52q60 0 105 -52t45 -130q0 -79 -45.5 -130.5t-104.5 -51.5t-104 51.5t-45 130.5zM671 1691q0 -46 26.5 -77 t61.5 -31t61.5 30.5t26.5 77.5q0 46 -26 76.5t-62 30.5q-35 0 -61.5 -30.5t-26.5 -76.5z" />
<glyph unicode="&#xc6;" horiz-adv-x="1679" d="M-68 0l740 1466h1080l-28 -167h-620l-78 -456h627l-28 -166h-628l-87 -511h692l-29 -166h-861l72 418h-464l-205 -418h-183zM403 584h409l123 715h-173z" />
<glyph unicode="&#xc7;" horiz-adv-x="1212" d="M152 604q0 363 165 614q179 273 463 273q182 0 304.5 -121t141.5 -340l-150 -17q-47 316 -290 316q-212 0 -343 -216.5t-131 -512.5q0 -230 93 -346.5t235 -116.5q122 0 214 88q113 108 158 291l159 -27q-76 -258 -222.5 -386t-320.5 -128q-213 0 -344.5 159t-131.5 470z M369 -419l18 112q50 -3 119 -3q78 0 109 20t31 52q0 35 -32.5 58.5t-100.5 24.5l33 161h115l-20 -90q69 -12 108.5 -58.5t39.5 -111.5q0 -79 -67 -128t-213 -49q-80 0 -140 12z" />
<glyph unicode="&#xc8;" horiz-adv-x="1120" d="M76 0l251 1466h868l-28 -167h-708l-78 -456h688l-28 -167h-688l-88 -510h757l-29 -166h-917zM586 1837h180l96 -275h-116z" />
<glyph unicode="&#xc9;" horiz-adv-x="1120" d="M76 0l251 1466h868l-28 -167h-708l-78 -456h688l-28 -167h-688l-88 -510h757l-29 -166h-917zM625 1562l154 275h187l-218 -275h-123z" />
<glyph unicode="&#xca;" horiz-adv-x="1120" d="M76 0l251 1466h868l-28 -167h-708l-78 -456h688l-28 -167h-688l-88 -510h757l-29 -166h-917zM509 1562l217 275h164l102 -275h-130l-65 178l-136 -178h-152z" />
<glyph unicode="&#xcb;" horiz-adv-x="1120" d="M76 0l251 1466h868l-28 -167h-708l-78 -456h688l-28 -167h-688l-88 -510h757l-29 -166h-917zM536 1598l35 205h155l-35 -205h-155zM838 1598l36 205h154l-35 -205h-155z" />
<glyph unicode="&#xcc;" horiz-adv-x="467" d="M96 0l251 1466h161l-251 -1466h-161zM262 1837h180l96 -275h-116z" />
<glyph unicode="&#xcd;" horiz-adv-x="467" d="M96 0l251 1466h161l-251 -1466h-161zM300 1562l154 275h187l-218 -275h-123z" />
<glyph unicode="&#xce;" horiz-adv-x="467" d="M96 0l251 1466h161l-251 -1466h-161zM185 1562l217 275h164l102 -275h-130l-65 178l-136 -178h-152z" />
<glyph unicode="&#xcf;" horiz-adv-x="467" d="M96 0l251 1466h161l-251 -1466h-161zM212 1598l35 205h155l-35 -205h-155zM514 1598l36 205h154l-35 -205h-155z" />
<glyph unicode="&#xd0;" horiz-adv-x="1212" d="M61 666l23 134h130l116 666h358q128 0 186 -17q90 -25 165 -99.5t116 -197.5t41 -286q0 -213 -65.5 -386.5t-162 -286.5t-226.5 -158q-97 -35 -235 -35h-432l116 666h-130zM264 166h190q135 0 229 28.5t167.5 111.5t127.5 232t54 338q0 167 -47.5 265.5t-128.5 132.5 q-59 25 -185 25h-210l-86 -499h331l-23 -134h-332z" />
<glyph unicode="&#xd1;" horiz-adv-x="1212" d="M81 0l251 1466h157l202 -550q90 -243 141 -407q36 -113 78 -287q23 189 56 382l148 862h156l-251 -1466h-159l-299 847q-79 226 -124 395q-11 -143 -47 -351l-153 -891h-156zM541 1594q27 132 66.5 178t99.5 46q27 0 52.5 -8t86.5 -40q68 -37 91 -37q43 0 59 79h99 q-9 -105 -55.5 -162t-105.5 -57q-33 0 -83 26q-113 60 -140 60q-54 0 -67 -85h-103z" />
<glyph unicode="&#xd2;" horiz-adv-x="1307" d="M154 614q0 403 201 654q179 223 436 223q216 0 361.5 -174t145.5 -484q0 -249 -95 -451.5t-240 -304.5t-305 -102q-139 0 -250.5 74t-182.5 224t-71 341zM312 604q0 -213 106 -340t251 -127q110 0 216.5 81t179.5 254.5t73 378.5q0 222 -103.5 349.5t-250.5 127.5 q-170 0 -306 -167q-166 -205 -166 -557zM682 1837h180l96 -275h-116z" />
<glyph unicode="&#xd3;" horiz-adv-x="1307" d="M154 614q0 403 201 654q179 223 436 223q216 0 361.5 -174t145.5 -484q0 -249 -95 -451.5t-240 -304.5t-305 -102q-139 0 -250.5 74t-182.5 224t-71 341zM312 604q0 -213 106 -340t251 -127q110 0 216.5 81t179.5 254.5t73 378.5q0 222 -103.5 349.5t-250.5 127.5 q-170 0 -306 -167q-166 -205 -166 -557zM721 1562l154 275h187l-218 -275h-123z" />
<glyph unicode="&#xd4;" horiz-adv-x="1307" d="M154 614q0 403 201 654q179 223 436 223q216 0 361.5 -174t145.5 -484q0 -249 -95 -451.5t-240 -304.5t-305 -102q-139 0 -250.5 74t-182.5 224t-71 341zM312 604q0 -213 106 -340t251 -127q110 0 216.5 81t179.5 254.5t73 378.5q0 222 -103.5 349.5t-250.5 127.5 q-170 0 -306 -167q-166 -205 -166 -557zM605 1562l217 275h164l102 -275h-130l-65 178l-136 -178h-152z" />
<glyph unicode="&#xd5;" horiz-adv-x="1307" d="M154 614q0 403 201 654q179 223 436 223q216 0 361.5 -174t145.5 -484q0 -249 -95 -451.5t-240 -304.5t-305 -102q-139 0 -250.5 74t-182.5 224t-71 341zM312 604q0 -213 106 -340t251 -127q110 0 216.5 81t179.5 254.5t73 378.5q0 222 -103.5 349.5t-250.5 127.5 q-170 0 -306 -167q-166 -205 -166 -557zM595 1594q27 132 66.5 178t99.5 46q27 0 52.5 -8t86.5 -40q68 -37 91 -37q43 0 59 79h99q-9 -105 -55.5 -162t-105.5 -57q-33 0 -83 26q-113 60 -140 60q-54 0 -67 -85h-103z" />
<glyph unicode="&#xd6;" horiz-adv-x="1307" d="M154 614q0 403 201 654q179 223 436 223q216 0 361.5 -174t145.5 -484q0 -249 -95 -451.5t-240 -304.5t-305 -102q-139 0 -250.5 74t-182.5 224t-71 341zM312 604q0 -213 106 -340t251 -127q110 0 216.5 81t179.5 254.5t73 378.5q0 222 -103.5 349.5t-250.5 127.5 q-170 0 -306 -167q-166 -205 -166 -557zM632 1598l35 205h155l-35 -205h-155zM934 1598l36 205h154l-35 -205h-155z" />
<glyph unicode="&#xd7;" horiz-adv-x="981" d="M130 409l259 315l-258 314l100 122l258 -314l256 313l99 -121l-257 -313l258 -314l-100 -122l-258 314l-258 -315z" />
<glyph unicode="&#xd8;" horiz-adv-x="1307" d="M143 -24l137 199q-127 184 -127 463q0 247 93.5 450t235.5 303t305 100q184 0 313 -117l131 192l73 -79l-133 -195q127 -177 127 -465q0 -243 -95.5 -446t-240 -304.5t-305.5 -101.5q-174 0 -304 117l-132 -195zM311 625q0 -182 68 -305l625 914q-94 94 -215 94 q-115 0 -225 -82t-181.5 -248.5t-71.5 -372.5zM448 231q100 -94 221 -94q110 0 216 81t179.5 254.5t73.5 378.5q0 167 -67 294z" />
<glyph unicode="&#xd9;" horiz-adv-x="1212" d="M162 400q0 78 34 266l137 800h161l-155 -901q-19 -112 -19 -167q0 -113 75 -187t193 -74q156 0 254 128q75 98 126 394l138 807h160l-147 -860q-42 -249 -114 -377t-176.5 -191.5t-234.5 -63.5q-200 0 -316 115.5t-116 310.5zM628 1837h180l96 -275h-116z" />
<glyph unicode="&#xda;" horiz-adv-x="1212" d="M162 400q0 78 34 266l137 800h161l-155 -901q-19 -112 -19 -167q0 -113 75 -187t193 -74q156 0 254 128q75 98 126 394l138 807h160l-147 -860q-42 -249 -114 -377t-176.5 -191.5t-234.5 -63.5q-200 0 -316 115.5t-116 310.5zM667 1562l154 275h187l-218 -275h-123z" />
<glyph unicode="&#xdb;" horiz-adv-x="1212" d="M162 400q0 78 34 266l137 800h161l-155 -901q-19 -112 -19 -167q0 -113 75 -187t193 -74q156 0 254 128q75 98 126 394l138 807h160l-147 -860q-42 -249 -114 -377t-176.5 -191.5t-234.5 -63.5q-200 0 -316 115.5t-116 310.5zM551 1562l217 275h164l102 -275h-130 l-65 178l-136 -178h-152z" />
<glyph unicode="&#xdc;" horiz-adv-x="1212" d="M162 400q0 78 34 266l137 800h161l-155 -901q-19 -112 -19 -167q0 -113 75 -187t193 -74q156 0 254 128q75 98 126 394l138 807h160l-147 -860q-42 -249 -114 -377t-176.5 -191.5t-234.5 -63.5q-200 0 -316 115.5t-116 310.5zM578 1598l35 205h155l-35 -205h-155z M880 1598l36 205h154l-35 -205h-155z" />
<glyph unicode="&#xdd;" horiz-adv-x="1120" d="M197 1466h172l178 -428q56 -136 113 -300q60 136 165 297l282 431h192l-574 -914l-94 -552h-161l97 567zM625 1562l154 275h187l-218 -275h-123z" />
<glyph unicode="&#xde;" horiz-adv-x="1120" d="M73 0l256 1466l160 -1l-51 -296h337q130 0 193.5 -35.5t108 -122.5t44.5 -202q0 -149 -71 -281.5t-187 -181t-278 -48.5h-299l-52 -298h-161zM315 464h262q145 0 217 35.5t120 119.5t48 187q0 75 -25 120.5t-68 64.5t-155 19h-304z" />
<glyph unicode="&#xdf;" horiz-adv-x="1026" d="M61 0l177 1033q31 181 82.5 267.5t143 138.5t192.5 52q113 0 190 -71.5t77 -163.5q0 -50 -22 -110t-88 -164q-62 -97 -77.5 -135t-15.5 -70q0 -31 12.5 -57t78.5 -108q95 -118 118.5 -171t23.5 -118q0 -141 -98.5 -244.5t-226.5 -103.5q-174 0 -290 235l124 82 q43 -98 82.5 -133.5t81.5 -35.5q64 0 120.5 63t56.5 142q0 36 -15.5 66.5t-90.5 119.5q-89 107 -110 151.5t-21 91.5q0 46 25.5 109.5t107.5 188.5q76 116 76 181q0 49 -35.5 82.5t-91.5 33.5q-64 0 -128 -45.5t-96 -121.5q-19 -46 -41 -173l-174 -1012h-148z" />
<glyph unicode="&#xe0;" d="M74 285q0 102 44 178t123.5 116.5t227.5 47.5q125 7 171.5 15t79.5 24q18 76 18 124q0 67 -48.5 107.5t-140.5 40.5q-185 0 -240 -194l-150 16q95 326 399 326q150 0 238 -78.5t88 -197.5q0 -84 -20 -197l-48 -264q-23 -126 -23 -204q0 -55 17 -145h-149q-13 50 -18 132 q-82 -86 -154 -121t-146 -35q-116 0 -192.5 83t-76.5 226zM222 291q0 -81 45 -128t120 -47q71 0 137 44t107.5 127t66.5 251q-55 -26 -186 -40q-134 -14 -184 -36t-78 -67t-28 -104zM468 1466h180l96 -275h-116z" />
<glyph unicode="&#xe1;" d="M74 285q0 102 44 178t123.5 116.5t227.5 47.5q125 7 171.5 15t79.5 24q18 76 18 124q0 67 -48.5 107.5t-140.5 40.5q-185 0 -240 -194l-150 16q95 326 399 326q150 0 238 -78.5t88 -197.5q0 -84 -20 -197l-48 -264q-23 -126 -23 -204q0 -55 17 -145h-149q-13 50 -18 132 q-82 -86 -154 -121t-146 -35q-116 0 -192.5 83t-76.5 226zM222 291q0 -81 45 -128t120 -47q71 0 137 44t107.5 127t66.5 251q-55 -26 -186 -40q-134 -14 -184 -36t-78 -67t-28 -104zM455 1191l154 275h187l-218 -275h-123z" />
<glyph unicode="&#xe2;" d="M74 285q0 102 44 178t123.5 116.5t227.5 47.5q125 7 171.5 15t79.5 24q18 76 18 124q0 67 -48.5 107.5t-140.5 40.5q-185 0 -240 -194l-150 16q95 326 399 326q150 0 238 -78.5t88 -197.5q0 -84 -20 -197l-48 -264q-23 -126 -23 -204q0 -55 17 -145h-149q-13 50 -18 132 q-82 -86 -154 -121t-146 -35q-116 0 -192.5 83t-76.5 226zM222 291q0 -81 45 -128t120 -47q71 0 137 44t107.5 127t66.5 251q-55 -26 -186 -40q-134 -14 -184 -36t-78 -67t-28 -104zM355 1191l217 275h164l102 -275h-130l-65 178l-136 -178h-152z" />
<glyph unicode="&#xe3;" d="M74 285q0 102 44 178t123.5 116.5t227.5 47.5q125 7 171.5 15t79.5 24q18 76 18 124q0 67 -48.5 107.5t-140.5 40.5q-185 0 -240 -194l-150 16q95 326 399 326q150 0 238 -78.5t88 -197.5q0 -84 -20 -197l-48 -264q-23 -126 -23 -204q0 -55 17 -145h-149q-13 50 -18 132 q-82 -86 -154 -121t-146 -35q-116 0 -192.5 83t-76.5 226zM222 291q0 -81 45 -128t120 -47q71 0 137 44t107.5 127t66.5 251q-55 -26 -186 -40q-134 -14 -184 -36t-78 -67t-28 -104zM354 1222q27 132 66.5 178t99.5 46q27 0 52.5 -8t86.5 -40q68 -37 91 -37q43 0 59 79h99 q-9 -105 -55.5 -162t-105.5 -57q-33 0 -83 26q-113 60 -140 60q-54 0 -67 -85h-103z" />
<glyph unicode="&#xe4;" d="M74 285q0 102 44 178t123.5 116.5t227.5 47.5q125 7 171.5 15t79.5 24q18 76 18 124q0 67 -48.5 107.5t-140.5 40.5q-185 0 -240 -194l-150 16q95 326 399 326q150 0 238 -78.5t88 -197.5q0 -84 -20 -197l-48 -264q-23 -126 -23 -204q0 -55 17 -145h-149q-13 50 -18 132 q-82 -86 -154 -121t-146 -35q-116 0 -192.5 83t-76.5 226zM222 291q0 -81 45 -128t120 -47q71 0 137 44t107.5 127t66.5 251q-55 -26 -186 -40q-134 -14 -184 -36t-78 -67t-28 -104zM366 1227l35 205h155l-35 -205h-155zM668 1227l36 205h154l-35 -205h-155z" />
<glyph unicode="&#xe5;" d="M74 285q0 102 44 178t123.5 116.5t227.5 47.5q125 7 171.5 15t79.5 24q18 76 18 124q0 67 -48.5 107.5t-140.5 40.5q-185 0 -240 -194l-150 16q95 326 399 326q150 0 238 -78.5t88 -197.5q0 -84 -20 -197l-48 -264q-23 -126 -23 -204q0 -55 17 -145h-149q-13 50 -18 132 q-82 -86 -154 -121t-146 -35q-116 0 -192.5 83t-76.5 226zM222 291q0 -81 45 -128t120 -47q71 0 137 44t107.5 127t66.5 251q-55 -26 -186 -40q-134 -14 -184 -36t-78 -67t-28 -104zM468 1320q0 78 45 130t104 52q60 0 105 -52t45 -130q0 -79 -45.5 -130.5t-104.5 -51.5 t-104 51.5t-45 130.5zM529 1320q0 -46 26.5 -77t61.5 -31t61.5 30.5t26.5 77.5q0 46 -26 76.5t-62 30.5q-35 0 -61.5 -30.5t-26.5 -76.5z" />
<glyph unicode="&#xe6;" horiz-adv-x="1493" d="M71 285q0 118 58 205q44 65 120.5 92t239.5 43q138 14 197 36q19 71 19 123q0 78 -41 120t-116 42q-181 0 -245 -200l-147 15q44 160 146.5 243t249.5 83q89 0 157 -36.5t115 -109.5q114 145 286 145q157 0 249.5 -124t92.5 -318q0 -58 -12 -159h-633q-3 -31 -3 -60 q0 -152 54.5 -226.5t136.5 -74.5q73 0 141.5 57.5t117.5 177.5l150 -17q-76 -195 -181.5 -280.5t-229.5 -85.5q-98 0 -180 58.5t-134 177.5q-63 -120 -150.5 -178.5t-181.5 -58.5q-126 0 -201 82t-75 228zM222 292q0 -80 44 -127.5t116 -47.5q98 0 166 85q87 109 115 323 q-88 -25 -212 -39q-102 -11 -143 -32t-63.5 -60.5t-22.5 -101.5zM835 624h478l1 44q0 87 -26.5 151t-72.5 95.5t-99 31.5q-82 0 -164 -85t-117 -237z" />
<glyph unicode="&#xe7;" horiz-adv-x="840" d="M94 401q0 203 66.5 369t168 241t225.5 75q134 0 219 -94t84 -258l-146 -12q0 104 -48.5 159.5t-119.5 55.5q-79 0 -142.5 -52.5t-110 -194t-46.5 -313.5q0 -128 50.5 -194.5t120.5 -66.5q72 0 138 67t103 204l149 -19q-56 -199 -160 -295.5t-232 -96.5q-138 0 -228.5 109 t-90.5 316zM169 -413l18 112q50 -3 119 -3q78 0 109 20t31 52q0 35 -32.5 58.5t-100.5 24.5l33 161h115l-20 -90q69 -12 108.5 -58.5t39.5 -111.5q0 -79 -67 -128t-213 -49q-80 0 -140 12z" />
<glyph unicode="&#xe8;" d="M87 426q0 187 70.5 349t172.5 236.5t221 74.5q151 0 246.5 -115t95.5 -325q0 -78 -11 -160h-642q-3 -32 -3 -57q0 -150 57 -227.5t137 -77.5q76 0 149.5 61t114.5 176l145 -18q-36 -155 -167 -270q-109 -97 -243 -97q-95 0 -173 51.5t-124 154t-46 244.5zM264 624h489v37 q0 142 -56 213t-143 71q-94 0 -172.5 -80t-117.5 -241zM468 1466h180l96 -275h-116z" />
<glyph unicode="&#xe9;" d="M87 426q0 187 70.5 349t172.5 236.5t221 74.5q151 0 246.5 -115t95.5 -325q0 -78 -11 -160h-642q-3 -32 -3 -57q0 -150 57 -227.5t137 -77.5q76 0 149.5 61t114.5 176l145 -18q-36 -155 -167 -270q-109 -97 -243 -97q-95 0 -173 51.5t-124 154t-46 244.5zM264 624h489v37 q0 142 -56 213t-143 71q-94 0 -172.5 -80t-117.5 -241zM436 1191l154 275h187l-218 -275h-123z" />
<glyph unicode="&#xea;" d="M87 426q0 187 70.5 349t172.5 236.5t221 74.5q151 0 246.5 -115t95.5 -325q0 -78 -11 -160h-642q-3 -32 -3 -57q0 -150 57 -227.5t137 -77.5q76 0 149.5 61t114.5 176l145 -18q-36 -155 -167 -270q-109 -97 -243 -97q-95 0 -173 51.5t-124 154t-46 244.5zM264 624h489v37 q0 142 -56 213t-143 71q-94 0 -172.5 -80t-117.5 -241zM365 1191l217 275h164l102 -275h-130l-65 178l-136 -178h-152z" />
<glyph unicode="&#xeb;" d="M87 426q0 187 70.5 349t172.5 236.5t221 74.5q151 0 246.5 -115t95.5 -325q0 -78 -11 -160h-642q-3 -32 -3 -57q0 -150 57 -227.5t137 -77.5q76 0 149.5 61t114.5 176l145 -18q-36 -155 -167 -270q-109 -97 -243 -97q-95 0 -173 51.5t-124 154t-46 244.5zM264 624h489v37 q0 142 -56 213t-143 71q-94 0 -172.5 -80t-117.5 -241zM367 1227l35 205h155l-35 -205h-155zM669 1227l36 205h154l-35 -205h-155z" />
<glyph unicode="&#xec;" horiz-adv-x="467" d="M103 0l182 1062h148l-182 -1062h-148zM245 1466h180l96 -275h-116z" />
<glyph unicode="&#xed;" horiz-adv-x="467" d="M103 0l182 1062h148l-182 -1062h-148zM213 1191l154 275h187l-218 -275h-123z" />
<glyph unicode="&#xee;" horiz-adv-x="467" d="M103 0l182 1062h148l-182 -1062h-148zM142 1191l217 275h164l102 -275h-130l-65 178l-136 -178h-152z" />
<glyph unicode="&#xef;" horiz-adv-x="467" d="M103 0l182 1062h148l-182 -1062h-148zM143 1227l35 205h155l-35 -205h-155zM445 1227l36 205h154l-35 -205h-155z" />
<glyph unicode="&#xf0;" d="M82 413q0 183 67.5 341t168.5 233t203 75q62 0 118 -26t115 -91q-22 143 -86 286l-188 -100l-39 100l173 95q-58 91 -100 140h154q30 -35 60 -75l145 75l38 -98l-128 -70q71 -142 102.5 -280.5t31.5 -314.5q0 -289 -127 -508t-348 -219q-161 0 -260.5 115t-99.5 322z M233 414q0 -148 58 -220.5t151 -72.5q87 0 163 73.5t119 220.5q34 119 34 224q0 133 -59.5 206t-152.5 73q-75 0 -144.5 -54.5t-119 -179t-49.5 -270.5z" />
<glyph unicode="&#xf1;" d="M56 0l182 1062h134l-31 -185q94 118 171 163.5t149 45.5q101 0 163.5 -68t62.5 -193q0 -56 -22 -182l-110 -643h-149l116 673q17 99 17 146q0 55 -31.5 86.5t-85.5 31.5q-112 0 -201.5 -99t-131.5 -344l-85 -494h-148zM340 1222q27 132 66.5 178t99.5 46q27 0 52.5 -8 t86.5 -40q68 -37 91 -37q43 0 59 79h99q-9 -105 -55.5 -162t-105.5 -57q-33 0 -83 26q-113 60 -140 60q-54 0 -67 -85h-103z" />
<glyph unicode="&#xf2;" d="M82 403q0 287 129 485t346 198q152 0 251 -116.5t99 -331.5q0 -197 -67.5 -352t-175 -232.5t-225.5 -77.5q-155 0 -256 114.5t-101 312.5zM231 421q0 -151 60 -228t150 -77q71 0 142 57.5t124 190.5t53 273q0 152 -60 230.5t-148 78.5q-77 0 -149.5 -57t-122 -188.5 t-49.5 -279.5zM462 1466h180l96 -275h-116z" />
<glyph unicode="&#xf3;" d="M82 403q0 287 129 485t346 198q152 0 251 -116.5t99 -331.5q0 -197 -67.5 -352t-175 -232.5t-225.5 -77.5q-155 0 -256 114.5t-101 312.5zM231 421q0 -151 60 -228t150 -77q71 0 142 57.5t124 190.5t53 273q0 152 -60 230.5t-148 78.5q-77 0 -149.5 -57t-122 -188.5 t-49.5 -279.5zM439 1191l154 275h187l-218 -275h-123z" />
<glyph unicode="&#xf4;" d="M82 403q0 287 129 485t346 198q152 0 251 -116.5t99 -331.5q0 -197 -67.5 -352t-175 -232.5t-225.5 -77.5q-155 0 -256 114.5t-101 312.5zM231 421q0 -151 60 -228t150 -77q71 0 142 57.5t124 190.5t53 273q0 152 -60 230.5t-148 78.5q-77 0 -149.5 -57t-122 -188.5 t-49.5 -279.5zM338 1191l217 275h164l102 -275h-130l-65 178l-136 -178h-152z" />
<glyph unicode="&#xf5;" d="M82 403q0 287 129 485t346 198q152 0 251 -116.5t99 -331.5q0 -197 -67.5 -352t-175 -232.5t-225.5 -77.5q-155 0 -256 114.5t-101 312.5zM231 421q0 -151 60 -228t150 -77q71 0 142 57.5t124 190.5t53 273q0 152 -60 230.5t-148 78.5q-77 0 -149.5 -57t-122 -188.5 t-49.5 -279.5zM318 1222q27 132 66.5 178t99.5 46q27 0 52.5 -8t86.5 -40q68 -37 91 -37q43 0 59 79h99q-9 -105 -55.5 -162t-105.5 -57q-33 0 -83 26q-113 60 -140 60q-54 0 -67 -85h-103z" />
<glyph unicode="&#xf6;" d="M82 403q0 287 129 485t346 198q152 0 251 -116.5t99 -331.5q0 -197 -67.5 -352t-175 -232.5t-225.5 -77.5q-155 0 -256 114.5t-101 312.5zM231 421q0 -151 60 -228t150 -77q71 0 142 57.5t124 190.5t53 273q0 152 -60 230.5t-148 78.5q-77 0 -149.5 -57t-122 -188.5 t-49.5 -279.5zM350 1227l35 205h155l-35 -205h-155zM652 1227l36 205h154l-35 -205h-155z" />
<glyph unicode="&#xf7;" horiz-adv-x="1124" d="M78 639v168h968v-168h-968zM459 319v205h205v-205h-205zM459 922v205h205v-205h-205z" />
<glyph unicode="&#xf8;" horiz-adv-x="1026" d="M120 -33l95 144q-84 117 -84 299q0 275 127.5 475.5t347.5 200.5q116 0 202 -68l93 141l74 -72l-96 -147q77 -119 77 -302q0 -198 -67.5 -353t-175 -232t-226.5 -77q-109 0 -200 63l-93 -141zM280 418q0 -100 27 -166l420 642q-53 52 -126 52q-77 0 -149.5 -57t-122 -189 t-49.5 -282zM368 162q54 -46 121 -46q73 0 144 57.5t123.5 191t52.5 280.5q0 83 -24 152z" />
<glyph unicode="&#xf9;" d="M105 219q0 68 28 230l105 613h148l-116 -679q-15 -85 -15 -131q0 -63 31 -95.5t87 -32.5q79 0 157.5 63.5t115 159t63.5 256.5l79 459h148l-182 -1062h-137l33 192q-157 -216 -321 -216q-95 0 -159.5 68t-64.5 175zM445 1466h180l96 -275h-116z" />
<glyph unicode="&#xfa;" d="M105 219q0 68 28 230l105 613h148l-116 -679q-15 -85 -15 -131q0 -63 31 -95.5t87 -32.5q79 0 157.5 63.5t115 159t63.5 256.5l79 459h148l-182 -1062h-137l33 192q-157 -216 -321 -216q-95 0 -159.5 68t-64.5 175zM480 1191l154 275h187l-218 -275h-123z" />
<glyph unicode="&#xfb;" d="M105 219q0 68 28 230l105 613h148l-116 -679q-15 -85 -15 -131q0 -63 31 -95.5t87 -32.5q79 0 157.5 63.5t115 159t63.5 256.5l79 459h148l-182 -1062h-137l33 192q-157 -216 -321 -216q-95 0 -159.5 68t-64.5 175zM350 1191l217 275h164l102 -275h-130l-65 178 l-136 -178h-152z" />
<glyph unicode="&#xfc;" d="M105 219q0 68 28 230l105 613h148l-116 -679q-15 -85 -15 -131q0 -63 31 -95.5t87 -32.5q79 0 157.5 63.5t115 159t63.5 256.5l79 459h148l-182 -1062h-137l33 192q-157 -216 -321 -216q-95 0 -159.5 68t-64.5 175zM371 1227l35 205h155l-35 -205h-155zM673 1227l36 205 h154l-35 -205h-155z" />
<glyph unicode="&#xfd;" horiz-adv-x="840" d="M0 -410l9 170q46 -16 89 -16q45 0 72 24q38 34 80 125l47 104l-145 1065h146l66 -537q20 -161 34 -318l389 855h155l-555 -1203q-83 -182 -146.5 -236t-139.5 -54q-52 0 -101 21zM429 1191l154 275h187l-218 -275h-123z" />
<glyph unicode="&#xfe;" d="M-17 -407l322 1873h148l-91 -531q68 83 127.5 117t121.5 34q121 0 204.5 -109t83.5 -319q0 -198 -67.5 -361t-178.5 -252q-86 -69 -180 -69q-157 0 -243 194l-99 -577h-148zM275 399q0 -134 54.5 -204.5t136.5 -70.5q65 0 114 43q70 62 120.5 204t50.5 288 q0 136 -54 208.5t-132 72.5q-62 0 -126 -55.5t-114 -195.5t-50 -290z" />
<glyph unicode="&#xff;" horiz-adv-x="840" d="M0 -410l9 170q46 -16 89 -16q45 0 72 24q38 34 80 125l47 104l-145 1065h146l66 -537q20 -161 34 -318l389 855h155l-555 -1203q-83 -182 -146.5 -236t-139.5 -54q-52 0 -101 21zM335 1227l35 205h155l-35 -205h-155zM637 1227l36 205h154l-35 -205h-155z" />
<glyph unicode="&#x152;" horiz-adv-x="1679" d="M135 591q0 268 89 481t226 316t283 103q193 0 309 -199l30 174h682l-29 -167h-521l-79 -463h526l-28 -167h-526l-87 -503h582l-29 -166h-742l19 108q-63 -72 -129 -103t-149 -31q-186 0 -300 147q-127 163 -127 470zM293 615q0 -192 33.5 -285.5t101.5 -143t148 -49.5 q114 0 208.5 104.5t146 378t51.5 384.5q0 144 -77.5 234t-180.5 90q-109 0 -214 -100t-161 -283.5t-56 -329.5z" />
<glyph unicode="&#x153;" horiz-adv-x="1585" d="M105 419q0 197 65.5 355.5t170 235t225.5 76.5q100 0 179.5 -52t124.5 -148q82 105 139 142q89 58 193 58q156 0 248 -122t92 -315q0 -85 -14 -165h-631q-3 -36 -3 -68q0 -139 63 -224q51 -68 132 -68q68 0 129 54q79 70 120 182l153 -17q-63 -176 -175 -271.5 t-231 -95.5q-102 0 -176 52t-119 155q-79 -112 -162.5 -159.5t-179.5 -47.5q-152 0 -247.5 113t-95.5 330zM250 428q0 -162 56.5 -237t144.5 -75q69 0 141.5 59t123.5 196t51 292q0 114 -51.5 199t-150.5 85q-86 0 -163.5 -74.5t-114.5 -211t-37 -233.5zM921 623h477l2 49 q0 136 -55.5 205.5t-140.5 69.5q-81 0 -158.5 -78.5t-124.5 -245.5z" />
<glyph unicode="&#x178;" horiz-adv-x="1120" d="M197 1466h172l178 -428q56 -136 113 -300q60 136 165 297l282 431h192l-574 -914l-94 -552h-161l97 567zM536 1598l35 205h155l-35 -205h-155zM838 1598l36 205h154l-35 -205h-155z" />
<glyph unicode="&#x2c6;" horiz-adv-x="559" d="M168 1191l217 275h164l102 -275h-130l-65 178l-136 -178h-152z" />
<glyph unicode="&#x2dc;" horiz-adv-x="559" d="M157 1222q27 132 66.5 178t99.5 46q27 0 52.5 -8t86.5 -40q68 -37 91 -37q43 0 59 79h99q-9 -105 -55.5 -162t-105.5 -57q-33 0 -83 26q-113 60 -140 60q-54 0 -67 -85h-103z" />
<glyph unicode="&#x2000;" horiz-adv-x="936" />
<glyph unicode="&#x2001;" horiz-adv-x="1873" />
<glyph unicode="&#x2002;" horiz-adv-x="936" />
<glyph unicode="&#x2003;" horiz-adv-x="1873" />
<glyph unicode="&#x2004;" horiz-adv-x="624" />
<glyph unicode="&#x2005;" horiz-adv-x="468" />
<glyph unicode="&#x2006;" horiz-adv-x="312" />
<glyph unicode="&#x2007;" horiz-adv-x="312" />
<glyph unicode="&#x2008;" horiz-adv-x="234" />
<glyph unicode="&#x2009;" horiz-adv-x="374" />
<glyph unicode="&#x200a;" horiz-adv-x="104" />
<glyph unicode="&#x2010;" horiz-adv-x="559" d="M77 440l31 181h453l-31 -181h-453z" />
<glyph unicode="&#x2011;" horiz-adv-x="559" d="M77 440l31 181h453l-31 -181h-453z" />
<glyph unicode="&#x2012;" horiz-adv-x="559" d="M77 440l31 181h453l-31 -181h-453z" />
<glyph unicode="&#x2013;" d="M-3 458v145h934v-145h-934z" />
<glyph unicode="&#x2014;" horiz-adv-x="1679" d="M0 458v145h1679v-145h-1679z" />
<glyph unicode="&#x2018;" horiz-adv-x="373" d="M212 964l31 180q50 296 224 322l-13 -79q-97 -33 -130 -218h92l-35 -205h-169z" />
<glyph unicode="&#x2019;" horiz-adv-x="373" d="M211 964l14 79q96 33 129 218h-92l35 205h169l-31 -180q-50 -296 -224 -322z" />
<glyph unicode="&#x201a;" horiz-adv-x="373" d="M-12 -296l14 79q97 33 129 217h-92l35 205h169l-30 -179q-51 -297 -225 -322z" />
<glyph unicode="&#x201c;" horiz-adv-x="559" d="M172 964l31 180q51 297 224 322l-13 -79q-97 -32 -130 -218h92l-35 -205h-169zM434 964l30 180q51 297 225 322l-14 -79q-95 -32 -129 -218h92l-35 -205h-169z" />
<glyph unicode="&#x201d;" horiz-adv-x="559" d="M176 964l14 79q96 33 129 218h-92l35 205h169l-30 -180q-51 -296 -225 -322zM446 964l14 79q96 33 129 218h-92l35 205h170l-31 -180q-51 -296 -225 -322z" />
<glyph unicode="&#x201e;" horiz-adv-x="559" d="M-33 -296l14 79q97 33 129 217h-92l35 205h169l-30 -179q-51 -297 -225 -322zM234 -296l14 79q97 33 129 217h-92l35 205h169l-30 -179q-51 -297 -225 -322z" />
<glyph unicode="&#x2022;" horiz-adv-x="588" d="M89 718q0 109 62.5 181t145.5 72t145 -72t62 -181q0 -110 -62.5 -182t-144.5 -72q-83 0 -145.5 72.5t-62.5 181.5z" />
<glyph unicode="&#x2026;" horiz-adv-x="1679" d="M241 0l35 205h168l-35 -205h-168zM802 0l36 205h167l-35 -205h-168zM1363 0l36 205h167l-35 -205h-168z" />
<glyph unicode="&#x202f;" horiz-adv-x="374" />
<glyph unicode="&#x2039;" horiz-adv-x="559" d="M80 549l325 431h123l-298 -454l131 -454h-111z" />
<glyph unicode="&#x203a;" horiz-adv-x="559" d="M27 72l297 451l-123 457h119l163 -479l-328 -429h-128z" />
<glyph unicode="&#x205f;" horiz-adv-x="468" />
<glyph unicode="&#x20ac;" d="M68 535l22 135h66q0 59 10 131h-98l22 135h103q78 268 232.5 411.5t354.5 143.5q189 0 303 -119l-69 -170q-81 127 -228 127q-140 0 -249.5 -100.5t-174.5 -292.5h517l-25 -135h-524q-11 -66 -17 -131h521l-27 -135h-494q19 -196 103 -297t221 -101q125 0 229 99 l-37 -213q-92 -48 -204 -48q-210 0 -329.5 141.5t-139.5 418.5h-88z" />
<glyph unicode="&#x2122;" horiz-adv-x="1679" d="M185 1345v121h546v-121h-218v-694h-111v694h-217zM806 651v815h164l169 -651l163 651h160v-815h-101v684l-173 -684h-100l-180 694v-694h-102z" />
<glyph unicode="&#x25fc;" horiz-adv-x="1060" d="M0 0v1060h1060v-1060h-1060z" />
<glyph unicode="&#xfb01;" horiz-adv-x="840" d="M91 0l158 922h-134l24 140h134l26 150q19 114 34 151q27 65 76 96.5t129 31.5q77 0 161 -29l-27 -158q-80 31 -130 31q-26 0 -46 -14t-32 -42q-9 -21 -24 -111l-19 -106h168l-24 -140h-167l-158 -922h-149zM516 0l182 1062h148l-182 -1062h-148zM731 1254l36 212h148 l-36 -212h-148z" />
<glyph unicode="&#xfb02;" horiz-adv-x="840" d="M91 0l158 922h-134l24 140h134l26 150q19 114 34 151q27 65 76 96.5t129 31.5q77 0 161 -29l-27 -158q-80 31 -130 31q-26 0 -46 -14t-32 -42q-9 -21 -24 -111l-19 -106h165l-24 -140h-164l-158 -922h-149zM516 0l251 1466h148l-251 -1466h-148z" />
</font>
</defs>
</svg>
